<?xml version="1.0" encoding="UTF-8" standalone="no"?>
<!DOCTYPE svg PUBLIC "-//W3C//DTD SVG 20010904//EN"
              "http://www.w3.org/TR/2001/REC-SVG-20010904/DTD/svg10.dtd">

<svg xmlns="http://www.w3.org/2000/svg"
     width="3.56944in" height="3.58333in"
     viewBox="0 0 257 258">
  <path id="Valinta"
        fill="none" stroke="black" stroke-width="1"
        d="M 160.00,6.13
           C 212.14,19.22 249.80,63.43 254.08,117.00
             254.53,122.58 255.14,123.70 254.99,130.00
             253.50,192.38 207.35,245.14 145.00,252.72
             126.74,254.93 110.73,253.63 93.00,248.57
             23.36,228.70 -12.96,153.36 10.34,86.00
             15.01,72.51 23.26,57.90 32.44,47.00
             48.03,28.50 69.68,14.08 93.00,7.43
             104.24,4.22 110.93,4.00 122.00,2.42
             132.44,1.15 149.71,3.54 160.00,6.13 Z
           M 39.76,84.00
           C 33.96,95.77 30.02,108.81 30.00,122.00
             29.98,136.67 29.43,143.49 34.03,158.00
             43.37,187.47 64.36,209.45 93.00,220.80
             101.22,224.05 112.15,226.89 121.00,227.00
             143.88,227.26 155.05,226.55 176.00,215.74
             232.02,186.85 245.26,110.33 204.70,63.00
             182.00,36.51 150.08,26.10 116.00,29.29
             82.11,34.46 55.07,52.94 39.76,84.00 Z
           M 134.00,41.21
           C 142.93,41.11 151.67,43.24 160.00,46.32
             217.05,67.42 233.31,137.48 196.33,184.00
             188.90,193.35 178.65,200.92 168.00,206.24
             152.51,213.98 140.95,215.19 124.00,215.00
             87.47,214.57 55.63,187.11 45.20,153.00
             42.15,143.00 41.98,135.25 42.00,125.00
             42.07,81.06 75.76,47.80 118.00,41.21
             118.00,41.21 134.00,41.21 134.00,41.21 Z
           M 73.00,87.00
           C 73.00,87.00 97.00,98.75 97.00,98.75
             99.79,100.15 104.97,103.25 108.00,102.92
             110.49,102.65 117.34,98.94 118.43,96.61
             119.28,94.79 118.93,88.53 119.17,86.00
             119.17,86.00 120.09,70.00 120.09,70.00
             120.09,70.00 121.00,59.00 121.00,59.00
             104.07,59.37 81.02,72.07 73.00,87.00 Z
           M 174.00,74.30
           C 164.60,66.25 150.48,59.58 138.04,59.00
             138.04,59.00 138.04,73.00 138.04,73.00
             138.04,73.00 139.00,84.00 139.00,84.00
             139.01,86.94 138.70,93.43 139.74,95.90
             141.09,99.09 146.59,102.38 150.00,102.52
             153.05,102.64 158.18,99.66 161.00,98.25
             161.00,98.25 184.00,87.00 184.00,87.00
             182.38,81.50 178.28,77.96 174.00,74.30 Z
           M 60.66,113.00
           C 56.85,130.57 59.64,138.42 64.00,155.00
             69.93,152.73 81.27,144.82 87.00,141.00
             89.01,139.66 94.85,136.12 96.22,134.39
             97.32,132.44 97.39,124.50 96.22,122.38
             95.35,120.01 90.25,117.17 88.00,115.67
             88.00,115.67 65.00,101.00 65.00,101.00
             62.51,104.85 61.62,108.56 60.66,113.00 Z
           M 169.00,115.69
           C 166.12,117.55 162.27,119.57 161.30,123.09
             160.99,124.30 161.00,126.69 161.30,128.00
             161.00,129.70 160.95,132.26 161.30,133.82
             163.21,137.66 174.15,143.46 178.00,146.00
             183.09,149.36 188.00,153.53 194.00,155.00
             197.00,143.60 199.05,139.40 199.00,127.00
             198.95,116.42 196.57,110.77 194.00,101.00
             187.91,102.49 175.00,111.81 169.00,115.69 Z
           M 113.85,123.00
           C 110.16,133.93 119.52,145.39 131.00,143.66
             150.82,140.67 148.86,111.10 127.00,112.32
             120.65,113.62 116.03,116.56 113.85,123.00 Z
           M 120.09,186.00
           C 120.09,186.00 119.17,170.00 119.17,170.00
             118.93,167.47 119.28,161.21 118.43,159.39
             117.34,157.06 110.49,153.35 108.00,153.08
             104.97,152.75 99.79,155.85 97.00,157.25
             97.00,157.25 73.00,169.00 73.00,169.00
             81.02,183.93 104.07,196.63 121.00,197.00
             121.00,197.00 120.09,186.00 120.09,186.00 Z
           M 175.00,180.83
           C 177.22,178.85 183.63,173.47 182.66,170.21
             181.89,167.59 174.50,164.50 172.00,163.25
             168.22,161.35 154.13,153.80 151.00,153.52
             147.88,153.24 142.64,155.96 140.74,158.39
             138.25,161.56 139.04,168.98 139.00,173.00
             139.00,173.00 138.04,183.00 138.04,183.00
             138.04,183.00 138.04,197.00 138.04,197.00
             150.90,196.40 165.47,189.34 175.00,180.83 Z" />
</svg>
